<?xml version="1.0" encoding="UTF-8" standalone="no"?>
<svg
   xmlns:dc="http://purl.org/dc/elements/1.1/"
   xmlns:cc="http://creativecommons.org/ns#"
   xmlns:rdf="http://www.w3.org/1999/02/22-rdf-syntax-ns#"
   xmlns:svg="http://www.w3.org/2000/svg"
   xmlns="http://www.w3.org/2000/svg"
   xmlns:sodipodi="http://sodipodi.sourceforge.net/DTD/sodipodi-0.dtd"
   xmlns:inkscape="http://www.inkscape.org/namespaces/inkscape"
   width="341.58563mm"
   height="48.191963mm"
   viewBox="0 0 341.58563 48.191963"
   version="1.1"
   id="svg8"
   inkscape:version="1.0.2-2 (e86c870879, 2021-01-15)"
   sodipodi:docname="Text_logo_light.svg">
  <defs
     id="defs2" />
  <sodipodi:namedview
     id="base"
     pagecolor="#ffffff"
     bordercolor="#666666"
     borderopacity="1.0"
     inkscape:pageopacity="0.0"
     inkscape:pageshadow="2"
     inkscape:zoom="0.49497475"
     inkscape:cx="763.96747"
     inkscape:cy="216.74883"
     inkscape:document-units="mm"
     inkscape:current-layer="g883"
     inkscape:document-rotation="0"
     showgrid="false"
     fit-margin-top="0"
     fit-margin-left="0"
     fit-margin-right="0"
     fit-margin-bottom="0"
     inkscape:window-width="1920"
     inkscape:window-height="1027"
     inkscape:window-x="-8"
     inkscape:window-y="-8"
     inkscape:window-maximized="1"
     showguides="false" />
  <metadata
     id="metadata5">
    <rdf:RDF>
      <cc:Work
         rdf:about="">
        <dc:format>image/svg+xml</dc:format>
        <dc:type
           rdf:resource="http://purl.org/dc/dcmitype/StillImage" />
        <dc:title />
      </cc:Work>
    </rdf:RDF>
  </metadata>
  <g
     inkscape:label="Réteg 1"
     inkscape:groupmode="layer"
     id="layer1"
     transform="translate(38.0185,-130.69244)">
    <g
       id="g883"
       transform="matrix(0.26458333,0,0,0.26458333,-37.803526,130.06741)">
      <path
         d="m 31.9375,53.96875 c -18.149554,0 -32.75,11.25795 -32.75,25.21875 v 75.59375 c 0,9.4104 6.6450476,17.57761 16.53125,21.90625 l 27.25,-27.25 V 145.65625 88 h 78.375 v 57.65625 h -57 L 30.0625,179.9375 c 0.622153,0.0268 1.243823,0.0312 1.875,0.0312 h 99.59375 c 18.14955,0 32.75,-11.2267 32.75,-25.1875 V 86.8437 L 144.9375,56.1875 c -4.08798,-1.404459 -8.62462,-2.21875 -13.40625,-2.21875 z"
         id="rect3776"
         style="color:#000000;display:inline;overflow:visible;visibility:visible;fill:#dedede;fill-opacity:1;fill-rule:nonzero;stroke:none;stroke-width:9;marker:none;enable-background:accumulate" />
      <path
         d="m 1004.4552,58.263774 c -1.6735,0 -3.3096,0.09124 -4.91425,0.275625 -34.46438,7.142857 -27.84678,42.052501 -27.84678,42.052501 v 58.47187 c 0,13.9608 14.61131,25.2 32.76103,25.2 h 90.7068 c 18.1496,0 32.7609,-11.2392 32.7609,-25.2 v -25.86938 h -43.6949 v 16.73438 h -68.3474 V 92.283773 h 68.3474 v 14.371887 h 43.6949 V 83.463773 c 0,-13.9608 -14.6113,-25.199999 -32.7609,-25.199999 z"
         id="rect3776-0"
         style="color:#000000;display:inline;overflow:visible;visibility:visible;fill:#dedede;fill-opacity:1;fill-rule:nonzero;stroke:none;stroke-width:9;marker:none;enable-background:accumulate"
         sodipodi:nodetypes="sccssssccccccccsss" />
      <path
         d="m 159.2657,53.97806 79.60905,126 h 15.68429 15.72525 l 79.60905,-126 h -48.48617 l -46.84813,74.93062 -46.80717,-74.93062 z"
         id="path3863"
         style="fill:#dedede;fill-opacity:1;stroke:none" />
      <path
         d="M 367.09283,53.97806 346.5763,86.462433 v 93.515627 h 133.00936 v -34.335 h -29.48483 -60.48486 v -14.37187 h 60.48486 V 102.36995 H 389.61597 V 87.998059 h 89.96969 V 53.97806 Z"
         id="rect3885"
         style="color:#000000;display:inline;overflow:visible;visibility:visible;fill:#dedede;fill-opacity:1;fill-rule:nonzero;stroke:none;stroke-width:9;marker:none;enable-background:accumulate" />
      <path
         d="m 496.41659,53.97806 v 22.68 32.48439 70.83561 h 43.53108 v -34.335 -13.82061 -43.824391 h 18.42803 47.66714 V 106.58306 H 558.3757 v 25.23939 l 52.78604,48.15561 h 58.56016 l -52.78605,-48.15561 h 4.91414 c 14.51965,0 26.20874,-10.11529 26.20874,-22.68 v -5.45139 l -32.55809,-49.713 h -75.55297 -17.32234 z"
         id="rect3950"
         style="color:#000000;display:inline;overflow:visible;visibility:visible;fill:#dedede;fill-opacity:1;fill-rule:nonzero;stroke:none;stroke-width:9;marker:none;enable-background:accumulate"
         sodipodi:nodetypes="ccccccccccccccccssccccc" />
      <path
         d="M 219.58311,53.97806 254.57891,2.362318 289.57593,53.97806 H 254.57891 Z"
         id="path4072"
         style="fill:#fa9c1e;fill-opacity:1;stroke:none" />
      <circle
         id="path887"
         style="fill:#dedede;stroke:#ffffff"
         cx="57.580357"
         cy="46.11232"
         r="0.047199778" />
      <circle
         id="path889"
         style="fill:#dedede;stroke:#ffffff"
         cx="111.50893"
         cy="47.540894"
         r="0.047199778" />
      <path
         style="fill:#fa9c1e;fill-opacity:1;stroke:none;stroke-width:1px;stroke-linecap:butt;stroke-linejoin:miter;stroke-opacity:1"
         d="M 64.544643,43.790889 H 92.261286 L 113.08506,9.0352829 H 84.277875 Z"
         id="path893"
         sodipodi:nodetypes="ccccc" />
      <path
         d="M 367.09283,53.97806 346.5763,86.462433 v 93.515627 h 133.00936 v -34.335 h -29.48483 -60.48486 v -14.37187 h 60.48486 V 102.36995 H 389.61597 V 87.998059 h 89.96969 V 53.97806 Z"
         id="path895"
         style="color:#000000;display:inline;overflow:visible;visibility:visible;fill:#dedede;fill-opacity:1;fill-rule:nonzero;stroke:none;stroke-width:9;marker:none;enable-background:accumulate" />
      <path
         d="m 845.14534,58.438825 -24.55715,40.060517 -1.51522,85.939488 h 133.00942 v -34.335 H 922.5975 862.11264 V 135.73196 H 922.5975 V 106.83072 H 862.11264 V 92.458824 h 89.96975 V 58.438825 Z"
         id="path895-0"
         style="color:#000000;display:inline;overflow:visible;visibility:visible;fill:#dedede;fill-opacity:1;fill-rule:nonzero;stroke:none;stroke-width:9;marker:none;enable-background:accumulate"
         sodipodi:nodetypes="ccccccccccccccc" />
      <path
         style="fill:#fa9c1e;fill-opacity:1;stroke:none;stroke-width:1px;stroke-linecap:butt;stroke-linejoin:miter;stroke-opacity:1"
         d="m 875.95499,46.822071 h 27.71664 l 20.82378,-34.755606 h -28.80719 z"
         id="path893-7"
         sodipodi:nodetypes="ccccc" />
      <path
         d="M 637.71125,55.884476 717.3203,181.88448 h 15.68429 15.72525 L 828.33889,55.884476 H 779.85272 L 733.00459,130.8151 686.19742,55.884476 Z"
         id="path3863-0"
         style="fill:#dedede;fill-opacity:1;stroke:none" />
      <path
         d="M 698.02866,55.884476 733.02446,4.2687337 768.02148,55.884476 H 733.02446 Z"
         id="path4072-0"
         style="fill:#fa9c1e;fill-opacity:1;stroke:none" />
      <g
         aria-label="S"
         id="text854"
         style="font-size:192px;line-height:1.25;font-family:'Bank Sans EF CY';-inkscape-font-specification:'Bank Sans EF CY'"
         transform="matrix(1.040059,0,0,1,-141.12134,0)">
        <path
           d="m 1376.2115,135.16117 c 0,-16.896 -9.0406,-28.8 -31.8477,-28.8 h -65.339 c -3.9039,0 -4.7258,-1.344 -4.7258,-4.224 V 91.03203 c 0,-4.032 1.8492,-4.8 5.1367,-4.8 h 63.0789 v 8.993143 l 33.6969,-0.259506 v -9.916494 c 0,-17.472 -6.986,-28.608 -33.0805,-28.608 h -70.2703 c -21.1633,0 -32.2586,6.912 -32.2586,30.144 v 19.583997 c 0,15.744 8.4242,28.032 31.4367,28.032 h 65.3391 c 3.9039,0 5.1367,1.344 5.1367,4.608 0,0 1.3258,7.23066 0,10.41771 -0.8209,1.97327 -0.6164,4.416 -4.5203,4.416 h -66.7773 v -8.68971 l -33.6969,-0.008 v 10.568 c 0,17.472 10.068,28.992 32.0531,28.992 h 74.3797 c 24.8617,0 32.2586,-11.712 32.2586,-30.144 z"
           style="font-size:192px;fill:#dedede;fill-opacity:1;stroke-width:1.03448"
           id="path856"
           sodipodi:nodetypes="sssssscccssssssssascccsssss" />
      </g>
    </g>
  </g>
</svg>
